<?xml version="1.0" encoding="UTF-8" standalone="no"?>
<!-- Created with Inkscape (http://www.inkscape.org/) -->

<svg
   width="154.14438mm"
   height="36.36779mm"
   viewBox="0 0 154.14438 36.36779"
   version="1.1"
   id="svg1"
   xml:space="preserve"
   xmlns:xlink="http://www.w3.org/1999/xlink"
   xmlns="http://www.w3.org/2000/svg"
   xmlns:svg="http://www.w3.org/2000/svg"><defs
     id="defs1"><linearGradient
       id="linearGradient9"><stop
         style="stop-color:#61ba80;stop-opacity:1;"
         offset="0"
         id="stop12" /><stop
         style="stop-color:#2075a6;stop-opacity:1;"
         offset="1"
         id="stop11" /></linearGradient><linearGradient
       id="gradGreenBlue"
       x1="0"
       y1="0"
       x2="1"
       y2="0"><stop
         offset="0%"
         stop-color="#63C58A"
         id="stop1" /><stop
         offset="55%"
         stop-color="#33A7C4"
         id="stop2" /><stop
         offset="100%"
         stop-color="#1F6FEA"
         id="stop3" /></linearGradient><linearGradient
       xlink:href="#gradGreenBlue"
       id="linearGradient3"
       x1="106.52203"
       y1="65.195335"
       x2="247.83311"
       y2="65.195335"
       gradientTransform="matrix(2.6980212,0,0,0.54827839,-51.09989,-6.3555448)"
       gradientUnits="userSpaceOnUse" /><clipPath
       id="clip0_53_5485"><rect
         width="288.60001"
         height="333"
         fill="#ffffff"
         id="rect6"
         x="0"
         y="0" /></clipPath><linearGradient
       xlink:href="#linearGradient9"
       id="linearGradient11"
       x1="45.090122"
       y1="85.594208"
       x2="80.684998"
       y2="85.594208"
       gradientUnits="userSpaceOnUse"
       gradientTransform="translate(-6.0349822,-0.5114945)" /><linearGradient
       xlink:href="#linearGradient9"
       id="linearGradient36"
       gradientUnits="userSpaceOnUse"
       x1="45.090122"
       y1="85.594208"
       x2="80.684998"
       y2="85.594208"
       gradientTransform="rotate(179.81783,133.87983,85.546071)" /></defs><g
     id="layer1"
     transform="translate(-29.898968,-70.763947)"><g
       id="g1"
       transform="matrix(0.26458333,0,0,0.26458333,19.565627,66.403855)"><text
         x="228.63788"
         y="105.53956"
         font-family="Inter, Arial, Helvetica, sans-serif"
         font-size="104.598px"
         font-weight="800"
         letter-spacing="0"
         fill="url(#gradGreenBlue)"
         id="text16"
         style="fill:url(#linearGradient3);stroke-width:1.21625">BioDSA</text><text
         x="233.62654"
         y="138.12285"
         font-family="Inter, Arial, Helvetica, sans-serif"
         font-size="28px"
         font-weight="500"
         fill="#6f7680"
         id="text17">Bimedical Data Science Agents</text><g
         style="fill:none"
         id="g3"
         transform="matrix(0.41277192,0,0,0.41277192,71.205602,16.479089)"><g
           clip-path="url(#clip0_53_5485)"
           id="g6"><path
             d="M 68.7583,124.861 0,85.6496 64.5674,47.394 133.326,86.6059 Z"
             fill="#6189e2"
             id="path1" /><path
             d="M 68.8294,289.892 0.0356445,250.432 V 85.6499 L 68.8294,125.074 Z"
             fill="#3362e8"
             id="path2" /><path
             d="M 218.315,123.834 73.6953,39.7786 143.341,0 287.926,84.0558 Z"
             fill="#6189e2"
             id="path3" /><path
             d="M 143.874,332.575 80.4785,297.436 79.9458,215.86 143.341,250.999 Z"
             fill="#3362e8"
             id="path4" /><path
             d="m 143.341,333 -0.107,-81.86 144.904,-82.284 0.107,81.859 z"
             fill="#6189e2"
             id="path5" /><path
             d="m 288.6,156.776 -70.215,39.46 -0.639,-73.039 70.25,-39.4602 z"
             fill="#3362e8"
             id="path6" /></g></g><path
         style="opacity:1;fill:url(#linearGradient11);stroke-width:0.960509"
         d="m 74.409504,35.602291 v -9.097299 l -35.354365,0.22188 V 143.66044 l 35.654301,0.2458 -0.134284,-9.66531 -24.892887,-0.0557 0.594995,-98.436041 z"
         id="path7" /><path
         style="opacity:1;fill:url(#linearGradient36);stroke-width:0.960509"
         d="m 187.47206,134.80821 0.0289,9.09725 35.35347,-0.33429 -0.37179,-116.932966 -35.6549,-0.132436 0.16502,9.664835 24.89293,-0.02345 -0.28201,98.437427 z"
         id="path35" /></g></g></svg>
