<svg width="392" height="165" viewBox="0 0 392 165" fill="none" xmlns="http://www.w3.org/2000/svg">
<g clip-path="url(#clip0_18_2123)">
<path d="M34.0694 61.8684L0 42.4391L31.9929 23.4836L66.0623 42.913L34.0694 61.8684Z" fill="#6189E2"/>
<path d="M34.1046 143.64L0.0175781 124.088V42.4391L34.1046 61.9737V143.64Z" fill="#3362E8"/>
<path d="M108.174 61.3594L36.5155 19.7101L71.0249 0L142.666 41.6493L108.174 61.3594Z" fill="#6189E2"/>
<path d="M71.2888 164.789L39.8767 147.378L39.6127 106.958L71.0249 124.369L71.2888 164.789Z" fill="#3362E8"/>
<path d="M71.0248 165L70.972 124.439L142.771 83.6672L142.824 124.228L71.0248 165Z" fill="#6189E2"/>
<path d="M143 77.6822L108.209 97.2343L107.892 61.0435L142.701 41.4913L143 77.6822Z" fill="#3362E8"/>
</g>
<path d="M187.585 110.101V62.6931H195.667V82.2656L213.446 62.6931H223.48L206.038 81.5206L223.884 110.101H214.052L200.313 87.7513L195.667 92.8307V110.101H187.585ZM243.129 110.913C239.762 110.913 236.799 110.191 234.24 108.746C231.681 107.256 229.683 105.179 228.246 102.515C226.81 99.8513 226.091 96.7815 226.091 93.3048C226.091 89.6926 226.787 86.5323 228.179 83.8233C229.616 81.1143 231.614 78.9921 234.173 77.4571C236.777 75.9222 239.785 75.1545 243.197 75.1545C246.519 75.1545 249.415 75.8995 251.884 77.3894C254.354 78.8794 256.262 80.8884 257.609 83.4169C258.955 85.9 259.629 88.6995 259.629 91.8148C259.629 92.2662 259.629 92.763 259.629 93.3048C259.629 93.8466 259.584 94.4111 259.494 94.9979H231.883V89.7831H251.48C251.391 87.3 250.56 85.3582 248.988 83.9587C247.417 82.5138 245.464 81.7915 243.129 81.7915C241.468 81.7915 239.942 82.1752 238.55 82.9429C237.158 83.7106 236.058 84.8619 235.25 86.3968C234.442 87.8868 234.038 89.7831 234.038 92.0857V94.0497C234.038 96.1719 234.42 98.0005 235.183 99.5355C235.991 101.07 237.068 102.244 238.415 103.057C239.807 103.825 241.356 104.208 243.062 104.208C244.948 104.208 246.497 103.802 247.709 102.989C248.966 102.177 249.887 101.093 250.47 99.7386H258.686C258.058 101.861 257.025 103.779 255.588 105.495C254.152 107.166 252.378 108.498 250.268 109.491C248.158 110.439 245.778 110.913 243.129 110.913ZM267.427 110.101V75.9672H275.509V110.101H267.427ZM271.468 70.5492C269.987 70.5492 268.752 70.0979 267.764 69.1947C266.821 68.2466 266.35 67.0953 266.35 65.7408C266.35 64.3413 266.821 63.2122 267.764 62.3545C268.752 61.4514 269.987 61 271.468 61C272.95 61 274.162 61.4514 275.105 62.3545C276.092 63.2122 276.586 64.3413 276.586 65.7408C276.586 67.0953 276.092 68.2466 275.105 69.1947C274.162 70.0979 272.95 70.5492 271.468 70.5492ZM278.383 125V118.092H281.144C282.67 118.092 283.748 117.776 284.376 117.144C285.005 116.557 285.319 115.519 285.319 114.029V75.9672H293.401V114.096C293.401 116.715 292.952 118.814 292.054 120.395C291.156 122.02 289.876 123.194 288.215 123.916C286.599 124.639 284.646 125 282.356 125H278.383ZM289.427 70.5492C287.901 70.5492 286.666 70.0979 285.723 69.1947C284.78 68.2466 284.309 67.0953 284.309 65.7408C284.309 64.3413 284.78 63.2122 285.723 62.3545C286.666 61.4514 287.901 61 289.427 61C290.909 61 292.121 61.4514 293.064 62.3545C294.007 63.2122 294.478 64.3413 294.478 65.7408C294.478 67.0953 294.007 68.2466 293.064 69.1947C292.121 70.0979 290.909 70.5492 289.427 70.5492ZM303.007 110.101V75.9672H311.089V110.101H303.007ZM307.048 70.5492C305.566 70.5492 304.332 70.0979 303.344 69.1947C302.401 68.2466 301.93 67.0953 301.93 65.7408C301.93 64.3413 302.401 63.2122 303.344 62.3545C304.332 61.4514 305.566 61 307.048 61C308.53 61 309.742 61.4514 310.685 62.3545C311.672 63.2122 312.166 64.3413 312.166 65.7408C312.166 67.0953 311.672 68.2466 310.685 69.1947C309.742 70.0979 308.53 70.5492 307.048 70.5492ZM333.515 110.101L350.755 62.6931H359.779L377.019 110.101H368.467L355.2 72.1746L341.933 110.101H333.515ZM341.192 98.9259L343.347 92.4921H366.581L368.736 98.9259H341.192ZM383.504 110.101V62.6931H391.585V110.101H383.504Z" fill="#3362E8"/>
<defs>
<clipPath id="clip0_18_2123">
<rect width="143" height="165" fill="white"/>
</clipPath>
</defs>
</svg>
